<svg xmlns="http://www.w3.org/2000/svg" fill="#01063d" viewBox="0 0 500 200">
  <path d="m117.39 96.18 40.66-33.8H76.73C63.4 62.98 54.19 72.8 55.89 82c1.41 7.6 10.1 13.93 20.84 14.18h40.66ZM213.11 43H392.3c39.25.45 71.32 26.98 72.13 59.26.82 32.75-30.79 60.61-70.58 61.77h-92.91L197.32 77.9l-62.82 52.07-57.71-.05c-25.9-3.1-45.38-21.74-45.37-43.48 0-5.77 1.37-11.32 3.87-16.42C43.35 53.57 62.85 43 84.21 43h97.15l15.96-13.26L213.11 43Zm23.07 19.38 80.45 67.6h77.22c21.48-.49 38.87-13.16 41.68-28.36 3.4-18.39-15.02-38.04-41.68-39.24H236.18Z"/>
</svg>
