<svg width="577" height="92" viewBox="0 0 577 92" fill="none" xmlns="http://www.w3.org/2000/svg">
<path d="M0.768 90L35.2 2.19199H53.504L88.064 90H72.704L64.896 69.648H23.296L15.488 90H0.768ZM27.904 57.488H60.16L50.304 31.76C50.048 30.992 49.664 29.9253 49.152 28.56C48.64 27.1947 48.0853 25.7013 47.488 24.08C46.976 22.4587 46.4213 20.8373 45.824 19.216C45.312 17.5093 44.8427 15.9733 44.416 14.608H43.648C43.136 16.2293 42.496 18.1493 41.728 20.368C40.96 22.5867 40.192 24.72 39.424 26.768C38.7413 28.816 38.144 30.48 37.632 31.76L27.904 57.488ZM136.426 91.536C122.517 91.536 111.807 87.8667 104.298 80.528C96.874 73.1893 93.162 61.712 93.162 46.096C93.162 35.856 94.9113 27.408 98.41 20.752C101.909 14.0107 106.986 8.976 113.642 5.64799C120.298 2.32 128.405 0.655998 137.962 0.655998C143.679 0.655998 148.97 1.296 153.834 2.576C158.783 3.856 163.093 5.81866 166.762 8.464C170.517 11.024 173.375 14.2667 175.338 18.192C177.386 22.1173 178.41 26.768 178.41 32.144H163.818C163.818 28.816 163.135 25.9573 161.77 23.568C160.49 21.0933 158.655 19.0453 156.266 17.424C153.962 15.8027 151.231 14.6507 148.074 13.968C145.002 13.2 141.717 12.816 138.218 12.816C133.354 12.816 129.002 13.456 125.162 14.736C121.407 16.016 118.25 17.9787 115.69 20.624C113.13 23.2693 111.21 26.5973 109.93 30.608C108.65 34.6187 108.01 39.3547 108.01 44.816V47.504C108.01 55.0133 109.077 61.1147 111.21 65.808C113.429 70.5013 116.671 73.9573 120.938 76.176C125.29 78.3093 130.581 79.376 136.81 79.376C142.698 79.376 147.647 78.5227 151.658 76.816C155.669 75.1093 158.741 72.592 160.874 69.264C163.007 65.8507 164.074 61.6267 164.074 56.592V55.312H134.506V43.408H178.41V90H168.042L166.634 79.504C164.245 82.32 161.514 84.624 158.442 86.416C155.37 88.1227 151.999 89.4027 148.33 90.256C144.746 91.1093 140.778 91.536 136.426 91.536ZM197.368 90V2.19199H265.464V14.48H211.704V38.928H259.832V51.216H211.704V77.712H266.232V90H197.368ZM282.618 90V2.19199H296.442L336.506 57.232C337.018 57.744 337.573 58.4693 338.17 59.408C338.853 60.3467 339.493 61.2853 340.09 62.224C340.687 63.1627 341.114 63.9307 341.37 64.528H342.01C342.01 63.248 342.01 62.0107 342.01 60.816C342.01 59.6213 342.01 58.4267 342.01 57.232V2.19199H355.834V90H342.522L301.946 34.32C301.263 33.296 300.41 32.016 299.386 30.48C298.362 28.8587 297.594 27.6213 297.082 26.768H296.442C296.442 27.9627 296.442 29.2 296.442 30.48C296.442 31.6747 296.442 32.9547 296.442 34.32V90H282.618ZM408.898 91.536C397.463 91.536 388.717 88.592 382.658 82.704C376.599 76.7307 373.57 68.24 373.57 57.232C373.57 54.7573 373.655 52.368 373.826 50.064C374.082 47.76 374.381 45.5413 374.722 43.408C376.258 34.6187 379.202 27.0667 383.554 20.752C387.991 14.352 393.581 9.40266 400.322 5.904C407.149 2.40533 414.914 0.655998 423.618 0.655998C430.701 0.655998 436.759 1.552 441.794 3.34399C446.829 5.136 450.669 7.90933 453.314 11.664C455.959 15.3333 457.282 20.0267 457.282 25.744C457.282 26.8533 457.239 28.048 457.154 29.328C457.154 30.5227 456.983 31.76 456.642 33.04H449.602C449.858 31.76 450.029 30.5227 450.114 29.328C450.285 28.1333 450.37 26.9813 450.37 25.872C450.37 21.4347 449.261 17.8507 447.042 15.12C444.909 12.304 441.751 10.2133 437.57 8.848C433.474 7.48266 428.482 6.8 422.594 6.8C416.962 6.8 411.799 7.73866 407.106 9.616C402.498 11.4933 398.445 14.1813 394.946 17.68C391.447 21.0933 388.546 25.232 386.242 30.096C384.023 34.8747 382.445 40.208 381.506 46.096C381.421 46.9493 381.293 47.8453 381.122 48.784C381.037 49.6373 380.951 50.5333 380.866 51.472C380.781 52.4107 380.695 53.3493 380.61 54.288C380.61 55.2267 380.61 56.208 380.61 57.232C380.61 63.9733 381.805 69.4347 384.194 73.616C386.583 77.712 389.911 80.6987 394.178 82.576C398.445 84.4533 403.394 85.392 409.026 85.392C415.938 85.392 421.869 84.496 426.818 82.704C431.853 80.8267 435.906 77.968 438.978 74.128C442.135 70.288 444.311 65.296 445.506 59.152H452.034C450.839 66.576 448.279 72.6773 444.354 77.456C440.429 82.2347 435.437 85.776 429.378 88.08C423.319 90.384 416.493 91.536 408.898 91.536ZM465.281 90L480.769 2.19199H487.681L472.193 90H465.281ZM519.193 90L501.785 2.19199H508.697L521.369 66.448C521.625 67.6427 521.924 69.264 522.265 71.312C522.606 73.2747 522.948 75.3653 523.289 77.584C523.63 79.7173 523.929 81.6373 524.185 83.344H524.825C525.678 81.6373 526.66 79.7173 527.769 77.584C528.878 75.3653 529.945 73.2747 530.969 71.312C532.078 69.264 532.932 67.6427 533.529 66.448L568.345 2.19199H576.025L528.153 90H519.193Z" fill="#F5F5F5"/>
</svg>
